<svg width="125" height="137" viewBox="0 0 125 137" fill="none" xmlns="http://www.w3.org/2000/svg">
<path d="M102.513 26.9452L100.795 5.54054C100.632 5.08358 100.358 4.67474 99.9961 4.35143C99.6347 4.02813 99.1981 3.80066 98.7261 3.6899C98.2541 3.57913 97.7619 3.58858 97.2945 3.71738C96.8271 3.84618 96.3996 4.09022 96.0508 4.42716C82.2595 7.81282 76.6945 15.0177 75.1004 24.0662C68.4821 22.6626 61.6783 22.3562 54.9608 23.1592C59.8089 16.2544 59.4747 9.21708 54.4316 2.05939C54.2898 1.59107 54.0319 1.16628 53.6818 0.824535C53.3318 0.482791 52.9011 0.235195 52.4297 0.104828C51.9583 -0.0255382 51.4617 -0.0344601 50.9859 0.078903C50.5102 0.192266 50.0709 0.424242 49.7088 0.753203C40.3805 5.47079 33.8558 11.3499 32.8051 19.497C21.0897 25.7836 11.6953 35.6604 5.99929 47.6794C0.303254 59.6983 -1.39476 73.2271 1.1542 86.2821C3.70316 99.3372 10.365 111.232 20.163 120.222C29.961 129.212 42.3797 134.825 55.5983 136.237C68.8169 137.649 82.14 134.787 93.6142 128.07C105.088 121.353 114.11 111.134 119.357 98.9119C124.603 86.6898 125.798 73.1073 122.767 60.1559C119.736 47.2044 112.638 35.5654 102.513 26.9452Z" fill="#3F3D56"/>
<path d="M60.3811 92.5304C58.9738 92.5288 57.6246 91.9687 56.6295 90.973C55.6343 89.9772 55.0745 88.6272 55.0729 87.219C55.074 87.0184 55.1544 86.8264 55.2964 86.685C55.4385 86.5435 55.6308 86.4641 55.8312 86.4641C56.0317 86.4641 56.224 86.5435 56.3661 86.685C56.5082 86.8264 56.5885 87.0184 56.5895 87.219C56.5912 88.2241 56.9913 89.1875 57.7022 89.8977C58.4131 90.6078 59.3766 91.0067 60.3811 91.0067C61.3856 91.0067 62.3491 90.6078 63.0599 89.8977C63.7708 89.1875 64.171 88.2241 64.1726 87.219C64.1736 87.0184 64.254 86.8264 64.3961 86.685C64.5382 86.5435 64.7305 86.4641 64.9309 86.4641C65.1314 86.4641 65.3237 86.5435 65.4658 86.685C65.6079 86.8264 65.6882 87.0184 65.6892 87.219C65.6876 88.6272 65.1279 89.9772 64.1328 90.9729C63.1376 91.9687 61.7884 92.5288 60.3811 92.5304Z" fill="white"/>
<path d="M60.7602 80.069C64.1106 80.069 66.8267 79.0237 66.8267 77.7343C66.8267 76.4449 64.1106 75.3997 60.7602 75.3997C57.4098 75.3997 54.6937 76.4449 54.6937 77.7343C54.6937 79.0237 57.4098 80.069 60.7602 80.069Z" fill="white"/>
<path d="M19.969 77.9055C21.7049 75.826 23.876 74.1532 26.329 73.0054C28.7819 71.8575 31.4567 71.2626 34.1646 71.2626C36.8725 71.2626 39.5474 71.8575 42.0003 73.0054C44.4532 74.1532 46.6243 75.826 48.3603 77.9055C51.3013 75.0962 53.3437 71.4773 54.2293 67.5064C55.1148 63.5356 54.8037 59.3912 53.3353 55.5973C51.8669 51.8034 49.3071 48.5303 45.9796 46.1921C42.6522 43.8539 38.7066 42.5555 34.6416 42.4611C30.5767 42.3667 26.5751 43.4806 23.1428 45.6618C19.7105 47.8431 17.0017 50.9937 15.359 54.7154C13.7162 58.437 13.2134 62.5626 13.9139 66.5702C14.6144 70.5779 16.4868 74.2877 19.2944 77.2305C19.514 77.4608 19.7389 77.6857 19.969 77.9055Z" fill="white"/>
<path d="M75.4765 77.9055C77.2125 75.826 79.3836 74.1532 81.8365 73.0053C84.2894 71.8575 86.9642 71.2626 89.6721 71.2626C92.38 71.2626 95.0549 71.8575 97.5078 73.0053C99.9607 74.1532 102.132 75.826 103.868 77.9055C106.809 75.0962 108.851 71.4773 109.737 67.5065C110.622 63.5356 110.311 59.3912 108.843 55.5973C107.374 51.8034 104.815 48.5304 101.487 46.1921C98.1598 43.8539 94.2141 42.5555 90.1492 42.4611C86.0843 42.3667 82.0827 43.4806 78.6504 45.6618C75.2181 47.843 72.5093 50.9937 70.8666 54.7153C69.2239 58.437 68.7209 62.5625 69.4214 66.5702C70.1219 70.5778 71.9943 74.2876 74.802 77.2305C75.0215 77.4607 75.2464 77.6857 75.4765 77.9055Z" fill="white"/>
<path d="M25.152 72.1031C29.0577 72.1031 32.2238 68.9351 32.2238 65.027C32.2238 61.119 29.0577 57.9509 25.152 57.9509C21.2464 57.9509 18.0802 61.119 18.0802 65.027C18.0802 68.9351 21.2464 72.1031 25.152 72.1031Z" fill="#3F3D56"/>
<path d="M80.6571 72.1031C84.5627 72.1031 87.7289 68.9351 87.7289 65.027C87.7289 61.119 84.5627 57.9509 80.6571 57.9509C76.7514 57.9509 73.5853 61.119 73.5853 65.027C73.5853 68.9351 76.7514 72.1031 80.6571 72.1031Z" fill="#3F3D56"/>
<path d="M90.3339 92.88C93.7563 92.88 96.5307 90.1039 96.5307 86.6794C96.5307 83.2549 93.7563 80.4788 90.3339 80.4788C86.9114 80.4788 84.137 83.2549 84.137 86.6794C84.137 90.1039 86.9114 92.88 90.3339 92.88Z" fill="#FF6584"/>
<path d="M34.3339 92.88C37.7563 92.88 40.5307 90.1039 40.5307 86.6794C40.5307 83.2549 37.7563 80.4788 34.3339 80.4788C30.9114 80.4788 28.137 83.2549 28.137 86.6794C28.137 90.1039 30.9114 92.88 34.3339 92.88Z" fill="#FF6584"/>
</svg>
